<?xml version="1.0" encoding="UTF-8" standalone="no"?>
<!DOCTYPE svg PUBLIC "-//W3C//DTD SVG 1.1//EN"
 "http://www.w3.org/Graphics/SVG/1.1/DTD/svg11.dtd">
<!-- Generated by graphviz version 9.0.0 (20230911.1827)
 -->
<!-- Title: PMF_PDF_CDF Pages: 1 -->
<svg width="761pt" height="370pt"
 viewBox="0.00 0.00 760.88 370.25" xmlns="http://www.w3.org/2000/svg" xmlns:xlink="http://www.w3.org/1999/xlink">
<g id="graph0" class="graph" transform="scale(1 1) rotate(0) translate(4 366.25)">
<title>PMF_PDF_CDF</title>
<polygon fill="white" stroke="none" points="-4,4 -4,-366.25 756.88,-366.25 756.88,4 -4,4"/>
<!-- dist -->
<g id="node1" class="node">
<title>dist</title>
<path fill="none" stroke="black" d="M430.75,-362.25C430.75,-362.25 240.75,-362.25 240.75,-362.25 234.75,-362.25 228.75,-356.25 228.75,-350.25 228.75,-350.25 228.75,-323.5 228.75,-323.5 228.75,-317.5 234.75,-311.5 240.75,-311.5 240.75,-311.5 430.75,-311.5 430.75,-311.5 436.75,-311.5 442.75,-317.5 442.75,-323.5 442.75,-323.5 442.75,-350.25 442.75,-350.25 442.75,-356.25 436.75,-362.25 430.75,-362.25"/>
<text text-anchor="middle" x="335.75" y="-346.85" font-family="Times,serif" font-size="12.00">Distribution of a real&#45;valued X</text>
<text text-anchor="middle" x="335.75" y="-332.6" font-family="Times,serif" font-size="12.00">(a probability rule: for any set A,</text>
<text text-anchor="middle" x="335.75" y="-318.35" font-family="Times,serif" font-size="12.00">P(X in A) is defined)</text>
</g>
<!-- disc -->
<g id="node2" class="node">
<title>disc</title>
<path fill="none" stroke="black" d="M200,-270.5C200,-270.5 89.5,-270.5 89.5,-270.5 83.5,-270.5 77.5,-264.5 77.5,-258.5 77.5,-258.5 77.5,-246 77.5,-246 77.5,-240 83.5,-234 89.5,-234 89.5,-234 200,-234 200,-234 206,-234 212,-240 212,-246 212,-246 212,-258.5 212,-258.5 212,-264.5 206,-270.5 200,-270.5"/>
<text text-anchor="middle" x="144.75" y="-255.1" font-family="Times,serif" font-size="12.00">Discrete X</text>
<text text-anchor="middle" x="144.75" y="-240.85" font-family="Times,serif" font-size="12.00">(countable support)</text>
</g>
<!-- dist&#45;&gt;disc -->
<g id="edge1" class="edge">
<title>dist&#45;&gt;disc</title>
<path fill="none" stroke="black" d="M278.44,-311.08C252.29,-299.77 221.56,-286.48 196.17,-275.49"/>
<polygon fill="black" stroke="black" points="197.59,-272.3 187.03,-271.54 194.81,-278.72 197.59,-272.3"/>
</g>
<!-- cont -->
<g id="node3" class="node">
<title>cont</title>
<path fill="none" stroke="black" d="M553.38,-270.5C553.38,-270.5 472.12,-270.5 472.12,-270.5 466.12,-270.5 460.12,-264.5 460.12,-258.5 460.12,-258.5 460.12,-246 460.12,-246 460.12,-240 466.12,-234 472.12,-234 472.12,-234 553.38,-234 553.38,-234 559.38,-234 565.38,-240 565.38,-246 565.38,-246 565.38,-258.5 565.38,-258.5 565.38,-264.5 559.38,-270.5 553.38,-270.5"/>
<text text-anchor="middle" x="512.75" y="-255.1" font-family="Times,serif" font-size="12.00">Continuous X</text>
<text text-anchor="middle" x="512.75" y="-240.85" font-family="Times,serif" font-size="12.00">(density exists)</text>
</g>
<!-- dist&#45;&gt;cont -->
<g id="edge2" class="edge">
<title>dist&#45;&gt;cont</title>
<path fill="none" stroke="black" d="M388.86,-311.08C412.87,-299.87 441.06,-286.72 464.47,-275.79"/>
<polygon fill="black" stroke="black" points="465.91,-278.98 473.49,-271.58 462.95,-272.64 465.91,-278.98"/>
</g>
<!-- mixed -->
<g id="node4" class="node">
<title>mixed</title>
<path fill="none" stroke="black" d="M407.88,-270.5C407.88,-270.5 263.62,-270.5 263.62,-270.5 257.62,-270.5 251.62,-264.5 251.62,-258.5 251.62,-258.5 251.62,-246 251.62,-246 251.62,-240 257.62,-234 263.62,-234 263.62,-234 407.88,-234 407.88,-234 413.88,-234 419.88,-240 419.88,-246 419.88,-246 419.88,-258.5 419.88,-258.5 419.88,-264.5 413.88,-270.5 407.88,-270.5"/>
<text text-anchor="middle" x="335.75" y="-255.1" font-family="Times,serif" font-size="12.00">Mixed X</text>
<text text-anchor="middle" x="335.75" y="-240.85" font-family="Times,serif" font-size="12.00">(atom + continuous part)</text>
</g>
<!-- dist&#45;&gt;mixed -->
<g id="edge3" class="edge">
<title>dist&#45;&gt;mixed</title>
<path fill="none" stroke="black" d="M335.75,-311.08C335.75,-301.99 335.75,-291.62 335.75,-282.2"/>
<polygon fill="black" stroke="black" points="339.25,-282.45 335.75,-272.45 332.25,-282.45 339.25,-282.45"/>
</g>
<!-- pmf -->
<g id="node5" class="node">
<title>pmf</title>
<path fill="none" stroke="black" d="M191.5,-65C191.5,-65 12,-65 12,-65 6,-65 0,-59 0,-53 0,-53 0,-12 0,-12 0,-6 6,0 12,0 12,0 191.5,0 191.5,0 197.5,0 203.5,-6 203.5,-12 203.5,-12 203.5,-53 203.5,-53 203.5,-59 197.5,-65 191.5,-65"/>
<text text-anchor="middle" x="101.75" y="-49.6" font-family="Times,serif" font-size="12.00">PMF p(x)</text>
<text text-anchor="middle" x="101.75" y="-35.35" font-family="Times,serif" font-size="12.00">= P(X = x)</text>
<text text-anchor="middle" x="101.75" y="-21.1" font-family="Times,serif" font-size="12.00">(sum_x p(x) = 1)</text>
<text text-anchor="middle" x="101.75" y="-6.85" font-family="Times,serif" font-size="12.00">(point probabilities can be &gt; 0)</text>
</g>
<!-- disc&#45;&gt;pmf -->
<g id="edge4" class="edge">
<title>disc&#45;&gt;pmf</title>
<path fill="none" stroke="black" d="M141.3,-233.8C134.62,-199.96 119.72,-124.52 110.24,-76.49"/>
<polygon fill="black" stroke="black" points="113.68,-75.83 108.3,-66.69 106.81,-77.18 113.68,-75.83"/>
</g>
<!-- cdf -->
<g id="node7" class="node">
<title>cdf</title>
<path fill="none" stroke="black" d="M422.12,-181.25C422.12,-181.25 249.38,-181.25 249.38,-181.25 243.38,-181.25 237.38,-175.25 237.38,-169.25 237.38,-169.25 237.38,-142.5 237.38,-142.5 237.38,-136.5 243.38,-130.5 249.38,-130.5 249.38,-130.5 422.12,-130.5 422.12,-130.5 428.12,-130.5 434.12,-136.5 434.12,-142.5 434.12,-142.5 434.12,-169.25 434.12,-169.25 434.12,-175.25 428.12,-181.25 422.12,-181.25"/>
<text text-anchor="middle" x="335.75" y="-165.85" font-family="Times,serif" font-size="12.00">CDF F(x)</text>
<text text-anchor="middle" x="335.75" y="-151.6" font-family="Times,serif" font-size="12.00">= P(X &lt;= x)</text>
<text text-anchor="middle" x="335.75" y="-137.35" font-family="Times,serif" font-size="12.00">(always exists; values in [0,1])</text>
</g>
<!-- disc&#45;&gt;cdf -->
<g id="edge6" class="edge">
<title>disc&#45;&gt;cdf</title>
<path fill="none" stroke="black" d="M158.15,-233.8C167.22,-223.06 180.07,-209.76 194,-201.25 204.11,-195.08 215.16,-189.69 226.48,-185.01"/>
<polygon fill="black" stroke="black" points="227.49,-188.37 235.52,-181.45 224.94,-181.85 227.49,-188.37"/>
<text text-anchor="middle" x="258.12" y="-204.5" font-family="Times,serif" font-size="10.00">F(x) = sum_{t &lt;= x} p(t)</text>
</g>
<!-- pdf -->
<g id="node6" class="node">
<title>pdf</title>
<path fill="none" stroke="black" d="M740.88,-65C740.88,-65 518.62,-65 518.62,-65 512.62,-65 506.62,-59 506.62,-53 506.62,-53 506.62,-12 506.62,-12 506.62,-6 512.62,0 518.62,0 518.62,0 740.88,0 740.88,0 746.88,0 752.88,-6 752.88,-12 752.88,-12 752.88,-53 752.88,-53 752.88,-59 746.88,-65 740.88,-65"/>
<text text-anchor="middle" x="629.75" y="-49.6" font-family="Times,serif" font-size="12.00">PDF p(x)</text>
<text text-anchor="middle" x="629.75" y="-35.35" font-family="Times,serif" font-size="12.00">P(a &lt;= X &lt;= b) = integral_a^b p(t) dt</text>
<text text-anchor="middle" x="629.75" y="-21.1" font-family="Times,serif" font-size="12.00">(integral p(t) dt = 1)</text>
<text text-anchor="middle" x="629.75" y="-6.85" font-family="Times,serif" font-size="12.00">(point probabilities are 0)</text>
</g>
<!-- cont&#45;&gt;pdf -->
<g id="edge5" class="edge">
<title>cont&#45;&gt;pdf</title>
<path fill="none" stroke="black" d="M565.59,-248.27C589.52,-243.96 615.76,-234.45 630.75,-214 659.73,-174.46 652.92,-115.85 643.24,-76.24"/>
<polygon fill="black" stroke="black" points="646.69,-75.6 640.77,-66.81 639.92,-77.37 646.69,-75.6"/>
</g>
<!-- cont&#45;&gt;cdf -->
<g id="edge7" class="edge">
<title>cont&#45;&gt;cdf</title>
<path fill="none" stroke="black" d="M490.55,-233.73C476.94,-223.48 458.9,-210.73 441.75,-201.25 432.19,-195.97 421.87,-190.91 411.56,-186.23"/>
<polygon fill="black" stroke="black" points="413.21,-183.14 402.65,-182.29 410.38,-189.54 413.21,-183.14"/>
<text text-anchor="middle" x="541.5" y="-204.5" font-family="Times,serif" font-size="10.00">F(x) = integral_{&#45;inf}^x p(t) dt</text>
</g>
<!-- mixed&#45;&gt;cdf -->
<g id="edge8" class="edge">
<title>mixed&#45;&gt;cdf</title>
<path fill="none" stroke="black" d="M332.93,-233.86C332.04,-227.62 331.18,-220.51 330.75,-214 330.3,-207.19 330.44,-199.93 330.9,-192.95"/>
<polygon fill="black" stroke="black" points="334.38,-193.38 331.78,-183.11 327.41,-192.76 334.38,-193.38"/>
<text text-anchor="middle" x="383.25" y="-204.5" font-family="Times,serif" font-size="10.00">jumps + smooth rise</text>
</g>
<!-- cdf&#45;&gt;pmf -->
<g id="edge10" class="edge">
<title>cdf&#45;&gt;pmf</title>
<path fill="none" stroke="black" stroke-dasharray="5,2" d="M268.59,-130.1C254.08,-124.14 238.98,-117.47 225.25,-110.5 202.69,-99.05 178.88,-84.77 158.25,-71.64"/>
<polygon fill="black" stroke="black" points="160.29,-68.78 149.98,-66.31 156.5,-74.67 160.29,-68.78"/>
<text text-anchor="middle" x="276" y="-101" font-family="Times,serif" font-size="10.00">jump size at x gives</text>
<text text-anchor="middle" x="276" y="-88.25" font-family="Times,serif" font-size="10.00">P(X=x)</text>
</g>
<!-- cdf&#45;&gt;pdf -->
<g id="edge11" class="edge">
<title>cdf&#45;&gt;pdf</title>
<path fill="none" stroke="black" stroke-dasharray="5,2" d="M395.95,-130.02C437.97,-112.68 494.72,-89.25 541.78,-69.82"/>
<polygon fill="black" stroke="black" points="542.98,-73.11 550.89,-66.06 540.31,-66.64 542.98,-73.11"/>
<text text-anchor="middle" x="554.88" y="-101" font-family="Times,serif" font-size="10.00">derivative gives p(x)</text>
<text text-anchor="middle" x="554.88" y="-88.25" font-family="Times,serif" font-size="10.00">(where differentiable)</text>
</g>
<!-- interval -->
<g id="node8" class="node">
<title>interval</title>
<path fill="none" stroke="black" d="M413.12,-50.75C413.12,-50.75 258.38,-50.75 258.38,-50.75 252.38,-50.75 246.38,-44.75 246.38,-38.75 246.38,-38.75 246.38,-26.25 246.38,-26.25 246.38,-20.25 252.38,-14.25 258.38,-14.25 258.38,-14.25 413.12,-14.25 413.12,-14.25 419.12,-14.25 425.12,-20.25 425.12,-26.25 425.12,-26.25 425.12,-38.75 425.12,-38.75 425.12,-44.75 419.12,-50.75 413.12,-50.75"/>
<text text-anchor="middle" x="335.75" y="-35.35" font-family="Times,serif" font-size="12.00">Interval probability</text>
<text text-anchor="middle" x="335.75" y="-21.1" font-family="Times,serif" font-size="12.00">P(a &lt; X &lt;= b) = F(b) &#45; F(a)</text>
</g>
<!-- cdf&#45;&gt;interval -->
<g id="edge9" class="edge">
<title>cdf&#45;&gt;interval</title>
<path fill="none" stroke="black" d="M335.75,-130.02C335.75,-110.42 335.75,-83.06 335.75,-62.47"/>
<polygon fill="black" stroke="black" points="339.25,-62.76 335.75,-52.76 332.25,-62.76 339.25,-62.76"/>
<text text-anchor="middle" x="356.75" y="-94.62" font-family="Times,serif" font-size="10.00">subtract</text>
</g>
</g>
</svg>
